<svg id="Layer_1" data-name="Layer 1" xmlns="http://www.w3.org/2000/svg" xmlns:xlink="http://www.w3.org/1999/xlink" viewBox="0 0 76.98 50.48"><defs><style>.cls-1{fill:url(#linear-gradient);}.cls-2{fill:url(#linear-gradient-2);}.cls-3{fill:url(#linear-gradient-3);}.cls-4{fill:url(#linear-gradient-4);}</style><linearGradient id="linear-gradient" x1="13.05" y1="46.99" x2="86.26" y2="46.99" gradientUnits="userSpaceOnUse"><stop offset="0" stop-color="#e1d5c4"/><stop offset="1" stop-color="#f9ead7"/></linearGradient><linearGradient id="linear-gradient-2" x1="49.06" y1="66.33" x2="83.32" y2="66.33" gradientUnits="userSpaceOnUse"><stop offset="0" stop-color="#851e1d"/><stop offset="1" stop-color="#b53030"/></linearGradient><linearGradient id="linear-gradient-3" x1="32.78" y1="57.16" x2="56.29" y2="78.48" xlink:href="#linear-gradient-2"/><linearGradient id="linear-gradient-4" x1="12.58" y1="78.27" x2="17.64" y2="75.41" xlink:href="#linear-gradient"/></defs><title>logo1</title><path class="cls-1" d="M86.26,47.59A18.79,18.79,0,0,1,76,64.43a4.56,4.56,0,0,1-5.27-.9l-9.81-9.79a.07.07,0,0,1,0-.11h4.34a5.89,5.89,0,0,0,5.77-7,6.07,6.07,0,0,0-6-4.77H27.92A6.29,6.29,0,0,1,23.49,40L13.07,29.61a.07.07,0,0,1,0-.11,18.69,18.69,0,0,1,4-.43H67C77.37,29.07,86.18,37.24,86.26,47.59Z" transform="translate(-9.29 -29.07)"/><path class="cls-2" d="M83.32,79.55H68.71a2.75,2.75,0,0,1-2-.82L49.66,61.65a2.06,2.06,0,0,1,0-2.91l5-5a2.06,2.06,0,0,1,2.91,0L83.17,79.28A.56.56,0,0,1,83.32,79.55Z" transform="translate(-9.29 -29.07)"/><path class="cls-3" d="M63.92,79.55H49.31a2.75,2.75,0,0,1-2-.82L30.26,61.65a2.06,2.06,0,0,1,0-2.91l5-5a2.06,2.06,0,0,1,2.91,0L63.77,79.28A.56.56,0,0,1,63.92,79.55Z" transform="translate(-9.29 -29.07)"/><path class="cls-4" d="M32.8,70.87l-8.56,8.68H9.29l16-16.26a1.91,1.91,0,0,1,2.74,0l4.73,4.79A2,2,0,0,1,32.8,70.87Z" transform="translate(-9.29 -29.07)"/></svg>